# xmcd
#
# Track frame offsets: 
#        150
#        12017
#        26933
#        44493
#        64060
#        77854
#        94981
#        110168
#        123507
#        143459
#        162681
#        181158
#
# Disc length: 2648 seconds
#
# Revision: 1
# Processed by: cddbd v1.5.2PL0 Copyright (c) Steve Scherf et al.
# Submitted via: ExactAudioCopy v0.99pb4
#
DISCID=a60a560c
DTITLE=David Gogo - Different Views
DYEAR=2009
DGENRE=Blues\Rock
TTITLE0=Too Late To Stop Now
TTITLE1=Don't Bring Me Down
TTITLE2=Lies
TTITLE3=Erase Any Trace
TTITLE4=I'll Get Over It
TTITLE5=Gold
TTITLE6=Where The Devil Won't Go
TTITLE7=Gunslinger
TTITLE8=Relax
TTITLE9=Over And Over
TTITLE10=Since You've Gone
TTITLE11=I'll Do It Myself
EXTD=
EXTT0=
EXTT1=
EXTT2=
EXTT3=
EXTT4=
EXTT5=
EXTT6=
EXTT7=
EXTT8=
EXTT9=
EXTT10=
EXTT11=
PLAYORDER=
